<?xml version="1.0" standalone="no"?>
<!DOCTYPE svg PUBLIC "-//W3C//DTD SVG 20010904//EN"
 "http://www.w3.org/TR/2001/REC-SVG-20010904/DTD/svg10.dtd">
<svg version="1.0" xmlns="http://www.w3.org/2000/svg"
 width="400.000000pt" height="400.000000pt" viewBox="0 0 400.000000 400.000000"
 preserveAspectRatio="xMidYMid meet">
<metadata>
Created by potrace 1.11, written by Peter Selinger 2001-2013
</metadata>
<g transform="translate(0.000000,400.000000) scale(0.100000,-0.100000)"
fill="#000000" stroke="none">
<path d="M452 3955 c-12 -25 -18 -45 -14 -45 4 0 18 20 30 45 12 25 18 45 14
45 -4 0 -18 -20 -30 -45z"/>
<path d="M1465 3970 c16 -16 33 -30 39 -30 5 0 -3 14 -19 30 -16 17 -33 30
-39 30 -5 0 3 -13 19 -30z"/>
<path d="M2080 3997 c0 -2 14 -16 32 -33 l32 -29 -25 32 c-20 27 -39 41 -39
30z"/>
<path d="M2345 3951 c19 -27 43 -55 52 -62 15 -12 -22 45 -60 94 -31 39 -25
14 8 -32z"/>
<path d="M3121 3843 c45 -87 99 -189 119 -228 21 -38 65 -124 100 -190 69
-132 137 -262 210 -400 26 -49 80 -153 120 -230 40 -77 85 -162 100 -190 15
-27 64 -122 110 -210 46 -88 92 -173 102 -190 17 -29 18 -3 18 883 l0 912
-480 0 -481 0 82 -157z"/>
<path d="M1520 3927 c0 -4 36 -45 79 -90 240 -250 548 -658 593 -789 6 -18 17
-44 25 -58 7 -14 13 -31 13 -38 0 -16 50 -95 56 -89 2 2 -9 34 -26 71 -16 38
-30 72 -30 76 0 34 -232 383 -337 507 -10 12 -27 32 -37 45 -125 152 -336 381
-336 365z"/>
<path d="M2151 3915 c27 -40 101 -135 106 -135 6 0 -5 17 -36 60 -30 40 -90
105 -70 75z"/>
<path d="M411 3858 c-10 -30 -9 -31 4 -14 8 11 15 26 15 33 0 22 -8 14 -19
-19z"/>
<path d="M1110 3865 c14 -8 30 -14 35 -14 6 0 -1 6 -15 14 -14 8 -29 14 -35
14 -5 0 1 -6 15 -14z"/>
<path d="M2426 3842 c10 -18 29 -45 42 -60 l23 -27 -16 30 c-9 17 -28 44 -42
60 l-25 30 18 -33z"/>
<path d="M381 3787 c-7 -18 -19 -46 -27 -64 -8 -17 -14 -35 -14 -40 0 -4 -8
-24 -18 -43 -21 -39 -85 -258 -132 -450 -16 -69 -37 -150 -46 -180 -8 -30 -18
-63 -21 -74 -3 -12 -1 -16 6 -12 14 9 14 -18 2 -62 -5 -17 -6 -32 -1 -32 5 0
11 26 15 58 8 68 59 289 115 497 37 138 69 237 122 373 22 56 21 82 -1 29z"/>
<path d="M337 3770 c-3 -11 -1 -20 4 -20 5 0 9 9 9 20 0 11 -2 20 -4 20 -2 0
-6 -9 -9 -20z"/>
<path d="M2277 3740 c9 -16 21 -30 26 -30 5 0 -1 14 -13 30 -12 17 -24 30 -26
30 -3 0 3 -13 13 -30z"/>
<path d="M2521 3693 c57 -101 135 -256 165 -325 33 -79 44 -84 14 -7 -43 112
-190 389 -206 389 -3 0 9 -26 27 -57z"/>
<path d="M1360 3725 c0 -2 10 -10 23 -16 20 -11 21 -11 8 4 -13 16 -31 23 -31
12z"/>
<path d="M1420 3686 c0 -8 111 -88 116 -83 2 2 -23 23 -56 46 -33 23 -60 40
-60 37z"/>
<path d="M2323 3664 c27 -51 50 -74 28 -27 -12 23 -26 45 -32 48 -6 4 -4 -6 4
-21z"/>
<path d="M877 3555 c-9 -19 -15 -35 -12 -35 7 0 37 61 33 66 -3 2 -12 -12 -21
-31z"/>
<path d="M2378 3573 c10 -23 95 -197 99 -202 2 -2 6 -2 9 1 6 7 -91 204 -106
213 -6 4 -7 -1 -2 -12z"/>
<path d="M1570 3576 c0 -2 8 -10 18 -17 15 -13 16 -12 3 4 -13 16 -21 21 -21
13z"/>
<path d="M1621 3527 c2 -1 15 -11 29 -22 l25 -20 -19 23 c-11 12 -24 22 -29
22 -6 0 -8 -1 -6 -3z"/>
<path d="M824 3455 c-9 -13 -14 -29 -12 -35 2 -7 11 5 21 24 19 41 15 47 -9
11z"/>
<path d="M790 3379 c-7 -11 -10 -23 -7 -25 2 -2 9 7 15 21 14 30 7 33 -8 4z"/>
<path d="M1874 3305 c8 -8 18 -15 22 -15 3 0 1 7 -6 15 -7 8 -17 15 -22 15 -5
0 -3 -7 6 -15z"/>
<path d="M2725 3275 c43 -135 78 -235 81 -232 7 7 -46 177 -67 215 -11 21 -17
28 -14 17z"/>
<path d="M1947 3239 c12 -12 24 -21 27 -18 2 2 -8 13 -22 23 l-27 19 22 -24z"/>
<path d="M1693 3174 c-73 -59 -123 -113 -123 -133 0 -9 17 4 40 31 22 26 66
70 98 97 72 64 62 66 -15 5z"/>
<path d="M685 3190 c-3 -5 -1 -10 4 -10 6 0 11 5 11 10 0 6 -2 10 -4 10 -3 0
-8 -4 -11 -10z"/>
<path d="M2571 3134 c0 -11 3 -14 6 -6 3 7 2 16 -1 19 -3 4 -6 -2 -5 -13z"/>
<path d="M624 3105 c-9 -14 -15 -27 -13 -30 3 -2 12 10 21 26 21 36 15 39 -8
4z"/>
<path d="M2596 3060 c7 -28 12 -35 18 -29 2 2 -2 15 -10 29 l-15 25 7 -25z"/>
<path d="M2631 3016 c-1 -10 125 -193 139 -201 18 -11 10 2 -52 87 -35 47 -68
94 -75 104 -6 10 -12 15 -12 10z"/>
<path d="M2814 2995 c3 -11 10 -42 16 -70 18 -87 21 -97 26 -92 6 6 -25 147
-38 167 -7 12 -8 10 -4 -5z"/>
<path d="M527 2939 c-20 -33 -31 -56 -23 -50 13 11 70 111 63 111 -2 0 -20
-27 -40 -61z"/>
<path d="M2616 2980 c3 -14 11 -32 16 -40 6 -10 7 -7 2 10 -3 14 -11 32 -16
40 -6 10 -7 7 -2 -10z"/>
<path d="M2080 2910 c36 -11 52 -11 45 0 -3 6 -21 10 -38 9 -31 -1 -31 -1 -7
-9z"/>
<path d="M106 2884 c-4 -14 -5 -28 -3 -31 3 -2 8 8 11 23 4 14 5 28 3 31 -3 2
-8 -8 -11 -23z"/>
<path d="M1958 2879 c-21 -11 -38 -22 -38 -24 0 -5 79 32 89 41 12 11 -18 1
-51 -17z"/>
<path d="M2150 2890 c8 -5 20 -10 25 -10 6 0 3 5 -5 10 -8 5 -19 10 -25 10 -5
0 -3 -5 5 -10z"/>
<path d="M2642 2880 c0 -14 2 -19 5 -12 2 6 2 18 0 25 -3 6 -5 1 -5 -13z"/>
<path d="M2195 2870 c3 -5 14 -10 23 -10 15 0 15 2 2 10 -20 13 -33 13 -25 0z"/>
<path d="M470 2850 c-6 -11 -8 -20 -6 -20 3 0 10 9 16 20 6 11 8 20 6 20 -3 0
-10 -9 -16 -20z"/>
<path d="M920 2854 c-14 -2 -62 -9 -107 -15 -46 -6 -83 -16 -83 -21 0 -6 16
-7 43 -2 23 4 85 8 137 9 118 3 114 2 96 20 -14 14 -32 16 -86 9z"/>
<path d="M2302 2815 c11 -20 22 -34 24 -32 7 6 -27 67 -36 67 -5 0 0 -16 12
-35z"/>
<path d="M85 2830 c-3 -5 -1 -10 4 -10 6 0 11 5 11 10 0 6 -2 10 -4 10 -3 0
-8 -4 -11 -10z"/>
<path d="M1949 2820 c-13 -10 -20 -19 -16 -20 4 0 17 9 29 20 28 26 17 26 -13
0z"/>
<path d="M2195 2811 c17 -10 32 -17 34 -15 7 7 -33 33 -49 34 -8 0 -1 -8 15
-19z"/>
<path d="M123 2785 c0 -22 2 -30 4 -17 2 12 2 30 0 40 -3 9 -5 -1 -4 -23z"/>
<path d="M430 2785 c-12 -20 -27 -41 -34 -48 -6 -6 -32 -43 -57 -82 -26 -38
-56 -79 -68 -89 -11 -11 -21 -23 -21 -28 0 -4 15 9 33 29 58 66 186 253 174
253 -3 0 -15 -16 -27 -35z"/>
<path d="M630 2808 c-45 -13 -67 -33 -25 -24 65 15 105 27 105 31 0 8 -42 4
-80 -7z"/>
<path d="M71 2779 c-6 -18 -11 -37 -10 -43 0 -6 7 7 15 28 8 22 12 41 10 43
-2 2 -9 -10 -15 -28z"/>
<path d="M1839 2793 c-13 -16 -12 -17 4 -4 16 13 21 21 13 21 -2 0 -10 -8 -17
-17z"/>
<path d="M2791 2781 c6 -13 24 -44 40 -70 17 -25 35 -65 41 -89 19 -77 28 -29
13 68 -19 119 -26 135 -20 45 l5 -70 -21 39 c-12 21 -25 44 -30 50 -5 6 -17
20 -25 31 -14 19 -15 19 -3 -4z"/>
<path d="M1995 2766 c10 -14 19 -26 22 -26 7 0 -17 39 -28 46 -6 3 -3 -5 6
-20z"/>
<path d="M2330 2717 c0 -31 4 -57 8 -57 9 0 8 98 -2 107 -3 3 -6 -19 -6 -50z"/>
<path d="M117 2733 c-4 -3 -7 -36 -7 -71 0 -84 13 -73 14 13 1 36 1 65 1 65
-1 0 -5 -3 -8 -7z"/>
<path d="M2026 2717 c3 -10 9 -15 12 -12 3 3 0 11 -7 18 -10 9 -11 8 -5 -6z"/>
<path d="M26 2644 c-14 -43 -24 -80 -21 -82 5 -6 8 1 34 88 28 91 18 87 -13
-6z"/>
<path d="M2261 2704 c0 -11 3 -14 6 -6 3 7 2 16 -1 19 -3 4 -6 -2 -5 -13z"/>
<path d="M2380 2668 c0 -9 5 -20 10 -23 13 -8 13 5 0 25 -8 13 -10 13 -10 -2z"/>
<path d="M2681 2664 c0 -11 3 -14 6 -6 3 7 2 16 -1 19 -3 4 -6 -2 -5 -13z"/>
<path d="M1766 2648 c-10 -47 -13 -131 -5 -116 5 9 10 43 13 77 4 62 0 80 -8
39z"/>
<path d="M1796 2644 c-8 -22 -4 -25 11 -9 7 8 9 16 4 19 -5 3 -12 -1 -15 -10z"/>
<path d="M1880 2621 c0 -25 6 -27 13 -6 4 8 2 17 -3 20 -6 4 -10 -3 -10 -14z"/>
<path d="M2338 2610 c-3 -16 -1 -35 4 -42 4 -8 8 4 8 30 0 49 -6 55 -12 12z"/>
<path d="M2691 2624 c0 -11 3 -14 6 -6 3 7 2 16 -1 19 -3 4 -6 -2 -5 -13z"/>
<path d="M2401 2625 c20 -53 45 -105 52 -105 4 0 -5 24 -19 53 -24 48 -42 76
-33 52z"/>
<path d="M60 2592 c0 -12 67 -72 81 -72 5 0 2 11 -7 25 -9 14 -22 25 -29 25
-8 0 -21 7 -29 16 -9 8 -16 11 -16 6z"/>
<path d="M1735 2589 c-4 -6 -5 -12 -2 -15 2 -3 7 2 10 11 7 17 1 20 -8 4z"/>
<path d="M1798 2575 c2 -14 8 -23 12 -20 10 6 1 45 -10 45 -4 0 -5 -11 -2 -25z"/>
<path d="M2701 2554 c0 -11 3 -14 6 -6 3 7 2 16 -1 19 -3 4 -6 -2 -5 -13z"/>
<path d="M2344 2405 c4 -82 11 -170 16 -195 7 -36 8 -30 4 35 -2 44 -7 130
-11 190 -3 61 -8 112 -11 115 -2 3 -2 -62 2 -145z"/>
<path d="M2712 2510 c0 -14 2 -19 5 -12 2 6 2 18 0 25 -3 6 -5 1 -5 -13z"/>
<path d="M215 2500 c-17 -19 -19 -19 -37 -4 -34 32 -18 6 22 -35 39 -39 57
-46 23 -9 -15 17 -15 19 2 38 10 11 16 22 13 25 -3 3 -13 -4 -23 -15z"/>
<path d="M898 2483 c6 -2 18 -2 25 0 6 3 1 5 -13 5 -14 0 -19 -2 -12 -5z"/>
<path d="M818 2473 c12 -2 30 -2 40 0 9 3 -1 5 -23 4 -22 0 -30 -2 -17 -4z"/>
<path d="M725 2458 c-27 -10 -76 -38 -65 -38 17 1 131 49 115 49 -11 0 -33 -5
-50 -11z"/>
<path d="M2030 2440 c-6 -11 -8 -20 -6 -20 3 0 10 9 16 20 6 11 8 20 6 20 -3
0 -10 -9 -16 -20z"/>
<path d="M2721 2444 c0 -11 3 -14 6 -6 3 7 2 16 -1 19 -3 4 -6 -2 -5 -13z"/>
<path d="M810 2406 c-25 -7 -58 -20 -75 -30 -16 -9 -21 -14 -10 -11 11 4 29 9
40 12 11 3 29 9 40 14 11 5 49 13 85 18 64 8 64 8 15 9 -27 0 -70 -5 -95 -12z"/>
<path d="M2510 2411 c0 -5 5 -13 10 -16 6 -3 10 -2 10 4 0 5 -4 13 -10 16 -5
3 -10 2 -10 -4z"/>
<path d="M295 2358 c28 -29 53 -55 56 -58 3 -3 13 -16 22 -30 9 -13 17 -20 17
-14 0 22 -116 154 -135 154 -5 0 13 -23 40 -52z"/>
<path d="M1980 2400 c-13 -8 -13 -10 2 -10 9 0 20 5 23 10 8 13 -5 13 -25 0z"/>
<path d="M1134 2376 c11 -9 29 -16 40 -16 17 1 18 2 6 9 -8 5 -26 12 -40 15
-24 7 -24 6 -6 -8z"/>
<path d="M2731 2354 c0 -11 3 -14 6 -6 3 7 2 16 -1 19 -3 4 -6 -2 -5 -13z"/>
<path d="M851 2333 c7 -12 15 -20 18 -17 3 2 -3 12 -13 22 -17 16 -18 16 -5
-5z"/>
<path d="M2560 2330 c6 -11 13 -20 16 -20 2 0 0 9 -6 20 -6 11 -13 20 -16 20
-2 0 0 -9 6 -20z"/>
<path d="M460 2274 c-25 -19 -50 -39 -57 -44 -8 -7 -4 -17 15 -39 32 -35 40
-33 16 4 -17 26 -17 28 1 41 10 8 22 14 25 14 3 0 16 14 28 30 13 17 21 30 20
29 -2 0 -23 -16 -48 -35z"/>
<path d="M2580 2295 c0 -9 108 -142 122 -152 6 -3 -18 30 -52 73 -75 94 -70
89 -70 79z"/>
<path d="M510 2279 c0 -5 5 -7 10 -4 6 3 10 8 10 11 0 2 -4 4 -10 4 -5 0 -10
-5 -10 -11z"/>
<path d="M572 2247 c-18 -18 -32 -37 -32 -41 0 -5 16 9 35 30 19 21 35 39 35
41 0 7 -8 1 -38 -30z"/>
<path d="M2751 2224 c0 -11 3 -14 6 -6 3 7 2 16 -1 19 -3 4 -6 -2 -5 -13z"/>
<path d="M2762 2180 c0 -14 2 -19 5 -12 2 6 2 18 0 25 -3 6 -5 1 -5 -13z"/>
<path d="M1820 2184 c0 -6 14 -23 30 -39 17 -16 30 -26 30 -24 0 3 -13 21 -30
39 -16 18 -30 29 -30 24z"/>
<path d="M531 2139 c0 -19 6 -44 14 -55 11 -15 14 -16 15 -3 0 8 -4 19 -9 25
-5 5 -11 23 -14 39 -4 28 -4 28 -6 -6z"/>
<path d="M670 2160 c0 -5 5 -10 11 -10 5 0 7 5 4 10 -3 6 -8 10 -11 10 -2 0
-4 -4 -4 -10z"/>
<path d="M450 2144 c0 -11 42 -75 47 -71 6 6 -30 76 -39 77 -5 0 -8 -3 -8 -6z"/>
<path d="M2373 2105 c0 -27 2 -38 4 -22 2 15 2 37 0 50 -2 12 -4 0 -4 -28z"/>
<path d="M2623 2105 c0 -27 2 -38 4 -22 2 15 2 37 0 50 -2 12 -4 0 -4 -28z"/>
<path d="M2770 2126 c0 -8 4 -17 9 -20 5 -4 7 3 4 14 -6 23 -13 26 -13 6z"/>
<path d="M2728 2103 c11 -16 30 -37 43 -48 13 -11 6 1 -15 28 -42 51 -59 64
-28 20z"/>
<path d="M731 2104 c0 -11 3 -14 6 -6 3 7 2 16 -1 19 -3 4 -6 -2 -5 -13z"/>
<path d="M921 2094 c0 -11 3 -14 6 -6 3 7 2 16 -1 19 -3 4 -6 -2 -5 -13z"/>
<path d="M433 2053 c-3 -10 -8 -22 -11 -27 -3 -5 0 -6 6 -2 7 4 12 14 12 23 0
14 3 13 21 -3 22 -19 22 -19 10 4 -14 26 -29 28 -38 5z"/>
<path d="M510 2034 c6 -14 10 -32 10 -41 0 -13 -2 -13 -17 -2 -15 13 -15 12
-3 -11 18 -36 41 -60 51 -54 5 3 13 -5 18 -18 26 -67 43 -100 47 -95 3 2 -15
51 -40 108 -24 57 -47 112 -50 122 -3 9 -10 17 -15 17 -7 0 -7 -9 -1 -26z m40
-85 c0 -6 -4 -7 -10 -4 -5 3 -10 11 -10 16 0 6 5 7 10 4 6 -3 10 -11 10 -16z"/>
<path d="M560 2051 c0 -6 4 -13 10 -16 6 -3 7 1 4 9 -7 18 -14 21 -14 7z"/>
<path d="M2627 2043 c-11 -10 -8 -83 3 -83 6 0 9 20 8 45 -1 48 -1 48 -11 38z"/>
<path d="M2377 1978 c-6 -65 -25 -136 -58 -222 -20 -51 -19 -74 1 -36 26 48
61 180 67 248 3 39 4 72 1 72 -3 0 -8 -28 -11 -62z"/>
<path d="M2810 2025 c0 -8 4 -15 10 -15 5 0 7 7 4 15 -4 8 -8 15 -10 15 -2 0
-4 -7 -4 -15z"/>
<path d="M580 2016 c0 -2 8 -10 18 -17 15 -13 16 -12 3 4 -13 16 -21 21 -21
13z"/>
<path d="M886 2003 c-6 -14 -5 -15 5 -6 7 7 10 15 7 18 -3 3 -9 -2 -12 -12z"/>
<path d="M640 1956 c0 -2 7 -7 16 -10 8 -3 12 -2 9 4 -6 10 -25 14 -25 6z"/>
<path d="M685 1930 c6 -10 64 -24 71 -17 3 2 -13 9 -36 15 -22 5 -38 6 -35 2z"/>
<path d="M2621 1924 c0 -11 3 -14 6 -6 3 7 2 16 -1 19 -3 4 -6 -2 -5 -13z"/>
<path d="M2615 1878 c-2 -13 -12 -71 -20 -130 -9 -59 -25 -135 -35 -170 -20
-64 -21 -89 -2 -41 18 45 40 142 51 223 6 41 13 90 17 108 4 17 4 32 0 32 -3
0 -8 -10 -11 -22z"/>
<path d="M620 1790 c0 -8 5 -22 10 -30 9 -13 10 -13 10 0 0 8 -5 22 -10 30 -9
13 -10 13 -10 0z"/>
<path d="M645 1724 c3 -12 12 -41 20 -65 12 -38 14 -39 8 -9 -3 19 -12 49 -19
65 -8 17 -11 21 -9 9z"/>
<path d="M3112 1720 c-23 -10 -57 -29 -75 -42 -44 -31 -56 -38 -177 -101 -75
-40 -124 -73 -172 -120 -37 -36 -97 -87 -135 -113 -98 -69 -105 -86 -48 -110
46 -19 115 -18 167 3 44 18 123 67 133 83 3 5 71 41 150 80 79 39 147 75 151
81 4 7 3 10 -2 8 -5 -3 -63 -31 -129 -63 -65 -32 -130 -62 -142 -67 -13 -5
-23 -13 -23 -18 0 -13 -96 -73 -150 -93 -25 -9 -59 -17 -76 -17 -42 -1 -94 18
-94 34 0 13 47 54 101 87 14 9 61 49 105 90 59 55 106 87 184 127 58 29 132
72 165 95 33 23 74 47 91 54 33 14 19 20 194 -81 23 -13 30 -15 20 -5 -24 25
-163 108 -180 108 -8 0 -34 -9 -58 -20z"/>
<path d="M2338 1714 c-4 -6 -5 -24 -3 -41 8 -63 9 -139 1 -163 -5 -17 -4 -20
2 -11 12 17 16 10 47 -87 14 -45 29 -83 34 -86 4 -3 17 5 29 17 24 25 94 148
89 154 -2 2 -24 -31 -48 -74 -24 -42 -49 -78 -56 -80 -24 -8 -73 194 -86 352
-1 17 -5 25 -9 19z"/>
<path d="M2235 1593 c-32 -54 -81 -129 -109 -168 -66 -90 -67 -92 -154 -221
-40 -60 -90 -127 -110 -148 -23 -24 -30 -37 -19 -33 10 4 20 7 23 7 2 0 34 45
71 101 110 163 115 171 178 259 103 146 196 300 181 300 -1 0 -29 -44 -61 -97z"/>
<path d="M3420 1640 c-13 -9 -13 -10 0 -9 8 0 24 4 35 9 l20 9 -20 0 c-11 0
-27 -4 -35 -9z"/>
<path d="M3521 1603 c19 -21 50 -63 69 -93 19 -30 63 -88 97 -129 76 -90 85
-121 23 -86 -29 17 -40 18 -40 6 0 -4 21 -16 48 -26 65 -25 71 -30 89 -97 21
-74 28 -68 12 11 -7 40 -18 65 -30 71 -9 6 -22 25 -29 44 -6 19 -23 47 -38 63
-57 61 -79 90 -116 149 -39 65 -91 124 -108 124 -6 0 5 -17 23 -37z"/>
<path d="M680 1599 c1 -20 58 -187 59 -169 0 8 -10 50 -22 92 -22 75 -37 107
-37 77z"/>
<path d="M3327 1548 c-45 -72 -53 -88 -25 -56 26 31 71 108 64 108 -3 0 -20
-24 -39 -52z"/>
<path d="M1873 1542 c1 -14 5 -18 11 -12 7 7 6 14 -1 21 -9 9 -12 7 -10 -9z"/>
<path d="M3134 1504 c-18 -14 -18 -15 5 -4 20 10 27 8 56 -20 18 -18 39 -30
46 -28 7 2 -4 14 -24 27 -20 12 -37 27 -37 32 0 14 -24 11 -46 -7z"/>
<path d="M1820 1500 c0 -5 5 -10 11 -10 5 0 7 5 4 10 -3 6 -8 10 -11 10 -2 0
-4 -4 -4 -10z"/>
<path d="M2310 1459 c-7 -11 -10 -23 -7 -25 2 -2 9 7 15 21 14 30 7 33 -8 4z"/>
<path d="M3250 1423 c-11 -21 -35 -60 -52 -88 -81 -130 -100 -176 -103 -252
-5 -115 -32 -188 -88 -245 -26 -26 -52 -48 -57 -48 -18 0 -45 34 -93 116 -33
55 -64 92 -101 122 -74 57 -148 93 -195 94 -51 1 -111 -20 -111 -38 0 -8 20
-36 43 -62 24 -26 70 -85 102 -132 33 -47 75 -104 95 -126 39 -46 74 -137 89
-231 8 -49 21 -80 64 -146 30 -46 69 -99 87 -118 54 -58 148 -204 138 -214 -7
-7 -83 33 -108 56 -28 27 -80 53 -88 45 -3 -3 4 -9 14 -13 10 -4 39 -22 63
-41 24 -18 66 -44 93 -58 26 -13 48 -30 48 -37 0 -7 5 -5 10 5 12 20 -10 74
-55 133 -16 22 -33 45 -37 50 -4 6 -26 33 -50 60 -69 83 -157 224 -163 263
-19 113 -47 192 -88 247 -12 17 -54 76 -94 131 -40 56 -85 112 -100 125 -56
48 -58 56 -22 74 92 48 275 -58 364 -210 48 -83 115 -150 115 -116 0 5 21 31
46 57 48 51 48 52 28 -26 -5 -18 -4 -22 4 -15 6 6 21 62 34 127 22 114 23 115
34 80 28 -93 44 -152 55 -210 6 -35 18 -66 25 -69 21 -8 55 17 70 52 7 19 18
36 24 40 5 3 25 -26 45 -65 50 -100 78 -104 101 -17 l11 42 36 -75 c20 -41 34
-64 31 -50 -10 42 -64 151 -73 145 -5 -2 -12 -25 -15 -49 -9 -55 -27 -74 -50
-51 -9 9 -16 21 -16 27 0 17 -51 116 -66 129 -8 6 -14 16 -14 21 0 5 -10 22
-21 38 -21 28 -21 30 -5 79 16 51 156 311 184 344 8 9 27 17 41 18 26 0 26 1
4 11 -12 6 -24 18 -25 27 -3 13 -7 11 -17 -8 -8 -14 -9 -21 -2 -17 6 4 11 2
11 -3 0 -6 -6 -11 -14 -11 -8 0 -29 -26 -47 -57 -18 -32 -45 -75 -61 -97 -15
-21 -25 -42 -22 -47 3 -5 -2 -19 -10 -31 -9 -12 -16 -18 -16 -12 0 5 5 15 12
22 8 8 8 12 1 12 -13 0 -25 -28 -18 -40 3 -5 -6 -33 -20 -64 -32 -69 -31 -97
2 -147 l26 -40 -19 -46 c-21 -50 -47 -74 -63 -58 -6 6 -13 30 -16 55 -5 39
-35 157 -66 258 -15 47 -2 123 29 174 15 24 34 57 42 73 8 17 28 51 46 76 31
45 51 89 40 89 -3 0 -15 -17 -26 -37z"/>
<path d="M2251 1308 c-47 -130 -66 -202 -82 -308 -29 -201 -37 -314 -20 -324
4 -3 9 35 10 86 2 159 46 387 107 555 19 53 33 98 30 100 -2 2 -22 -47 -45
-109z"/>
<path d="M741 1405 c0 -5 8 -43 19 -84 11 -41 20 -83 20 -93 0 -10 7 -18 15
-18 9 0 15 -9 14 -22 0 -22 -1 -22 -9 -3 -8 18 -9 17 -9 -6 -1 -19 4 -26 15
-25 11 1 21 -13 30 -39 12 -36 13 -37 9 -7 -2 18 0 32 6 32 12 0 232 -126 307
-175 28 -19 52 -31 52 -25 0 5 -21 22 -47 37 -27 15 -50 30 -53 33 -3 3 -40
26 -83 51 -128 73 -197 118 -197 129 0 6 -9 23 -20 38 -12 16 -27 56 -36 91
-13 58 -33 109 -33 86z"/>
<path d="M3585 1320 c66 -22 84 -25 70 -12 -13 11 -87 32 -111 31 -11 0 8 -9
41 -19z"/>
<path d="M4 1272 c25 -44 199 -202 222 -202 4 0 25 -15 48 -33 23 -19 61 -46
86 -62 80 -49 190 -137 190 -152 0 -8 5 -11 10 -8 13 8 139 -122 146 -151 6
-22 -54 -212 -88 -278 -11 -21 -15 -35 -9 -31 15 8 45 70 60 120 7 22 16 49
21 60 5 11 14 38 21 60 l12 40 15 -33 c9 -17 19 -32 24 -32 25 0 72 165 58
205 -4 12 -9 -3 -13 -42 -6 -60 -33 -143 -46 -143 -14 0 -31 79 -21 104 5 13
11 46 14 73 3 26 8 58 12 71 4 13 2 22 -4 22 -6 0 -16 -40 -23 -90 -6 -49 -15
-90 -18 -89 -3 0 -35 33 -71 72 -67 75 -136 131 -275 227 -165 113 -222 157
-299 230 -44 41 -76 69 -72 62z"/>
<path d="M940 1139 c0 -9 76 -32 90 -27 5 2 -13 10 -41 20 -27 9 -49 12 -49 7z"/>
<path d="M3574 1128 c-3 -4 16 -8 43 -8 26 0 64 -5 83 -10 55 -16 113 -23 107
-13 -14 22 -222 49 -233 31z"/>
<path d="M800 1092 c0 -23 4 -42 9 -42 6 0 7 17 4 38 -8 51 -13 53 -13 4z"/>
<path d="M3533 1108 c-20 -26 -26 -41 -15 -34 12 7 36 46 29 46 -3 0 -9 -6
-14 -12z"/>
<path d="M1075 1101 c30 -12 100 -22 89 -12 -5 5 -31 11 -59 15 -31 3 -42 2
-30 -3z"/>
<path d="M2000 1043 c0 -38 -11 -111 -24 -163 -29 -117 -50 -243 -44 -261 5
-14 13 18 44 189 18 93 30 115 36 65 3 -16 5 32 6 105 1 82 -2 132 -8 132 -6
0 -10 -29 -10 -67z"/>
<path d="M3827 1091 c-3 -14 0 -21 9 -21 16 0 18 9 5 28 -6 10 -10 9 -14 -7z"/>
<path d="M1220 1081 c8 -6 28 -11 44 -11 39 0 31 6 -19 14 -29 5 -36 4 -25 -3z"/>
<path d="M1328 1063 c7 -3 16 -2 19 1 4 3 -2 6 -13 5 -11 0 -14 -3 -6 -6z"/>
<path d="M1370 1060 c8 -5 24 -10 34 -10 26 0 18 6 -19 14 -22 5 -26 4 -15 -4z"/>
<path d="M3473 1018 c-26 -42 -73 -133 -73 -143 0 -3 5 -5 10 -5 6 0 10 6 10
14 0 15 43 102 74 149 10 15 16 27 12 27 -3 0 -18 -19 -33 -42z"/>
<path d="M1490 1039 c30 -5 80 -11 110 -14 87 -9 86 -8 97 -83 l10 -67 1 67 2
67 38 3 c20 2 -35 11 -123 21 -165 18 -231 21 -135 6z"/>
<path d="M220 1035 c0 -5 5 -17 10 -25 5 -8 10 -10 10 -5 0 6 -5 17 -10 25 -5
8 -10 11 -10 5z"/>
<path d="M3885 1000 c-3 -5 -1 -10 4 -10 6 0 11 5 11 10 0 6 -2 10 -4 10 -3 0
-8 -4 -11 -10z"/>
<path d="M812 970 c0 -19 2 -27 5 -17 2 9 2 25 0 35 -3 9 -5 1 -5 -18z"/>
<path d="M244 960 c32 -142 37 -201 34 -386 -2 -107 0 -194 5 -194 9 0 11 64
8 273 -2 108 0 167 7 167 5 0 54 -46 107 -102 56 -59 91 -90 82 -73 -14 29
-155 169 -190 190 -10 6 -21 32 -27 63 -5 29 -15 61 -21 70 -9 14 -9 13 -5 -8z"/>
<path d="M3851 922 c-26 -39 -51 -129 -49 -177 0 -17 6 -2 14 37 14 71 29 108
44 108 8 0 25 58 18 65 -2 2 -14 -13 -27 -33z"/>
<path d="M1220 932 c0 -6 12 -13 28 -16 39 -10 144 -52 238 -96 l81 -38 6 -83
c4 -46 7 -167 7 -267 0 -206 -9 -253 -66 -359 -36 -64 -39 -73 -26 -73 4 0 25
37 47 83 22 45 43 84 46 87 3 3 9 14 13 25 l8 20 8 -20 c6 -15 9 -16 9 -4 1 9
-2 19 -6 23 -9 9 -10 29 -10 206 -1 206 -3 283 -9 321 -5 36 -5 36 34 43 40 6
126 49 138 68 8 12 5 11 -61 -23 -86 -45 -120 -45 -213 1 -44 22 -83 40 -87
40 -4 0 -37 13 -73 29 -86 37 -112 45 -112 33z"/>
<path d="M3626 913 c-3 -10 -9 -25 -13 -33 -5 -13 -4 -13 10 -1 15 12 17 11
17 -5 1 -19 27 -61 33 -53 2 2 -6 28 -18 57 -17 41 -24 49 -29 35z"/>
<path d="M3215 890 c3 -5 8 -10 11 -10 2 0 4 5 4 10 0 6 -5 10 -11 10 -5 0 -7
-4 -4 -10z"/>
<path d="M3365 830 c21 -24 26 -25 19 -6 -3 8 -13 17 -22 21 -13 5 -13 2 3
-15z"/>
<path d="M816 827 c3 -10 9 -15 12 -12 3 3 0 11 -7 18 -10 9 -11 8 -5 -6z"/>
<path d="M2021 817 c-1 -36 41 -126 74 -157 36 -34 31 -12 -6 26 -20 21 -38
55 -49 96 -13 43 -19 54 -19 35z"/>
<path d="M3581 814 c0 -11 3 -14 6 -6 3 7 2 16 -1 19 -3 4 -6 -2 -5 -13z"/>
<path d="M1784 793 c2 -16 8 -59 11 -98 4 -38 10 -86 15 -105 26 -102 50 -210
56 -245 11 -74 72 -237 98 -264 15 -15 26 -39 26 -54 0 -15 5 -27 10 -27 6 0
10 18 10 39 0 28 -5 41 -17 46 -17 7 -16 8 2 14 17 7 17 8 -7 14 -21 6 -30 17
-39 50 -7 23 -18 49 -24 57 -7 8 -22 56 -34 105 -12 50 -29 117 -38 150 -29
116 -43 190 -49 267 -4 43 -11 78 -16 78 -5 0 -7 -12 -4 -27z"/>
<path d="M3231 804 c0 -11 3 -14 6 -6 3 7 2 16 -1 19 -3 4 -6 -2 -5 -13z"/>
<path d="M3489 773 c-13 -16 -12 -17 4 -4 16 13 21 21 13 21 -2 0 -10 -8 -17
-17z"/>
<path d="M3586 768 c-3 -13 -6 -35 -6 -50 0 -15 -4 -29 -9 -32 -5 -3 -11 -17
-14 -32 -4 -23 -3 -24 11 -10 8 8 19 43 24 77 8 63 6 88 -6 47z"/>
<path d="M561 748 c0 -9 -4 -25 -7 -35 -5 -17 -5 -17 6 0 6 10 9 25 7 35 -4
15 -5 15 -6 0z"/>
<path d="M3792 685 c0 -16 2 -22 5 -12 2 9 2 23 0 30 -3 6 -5 -1 -5 -18z"/>
<path d="M531 662 c-17 -31 -13 -40 5 -14 9 13 14 26 11 29 -3 2 -10 -4 -16
-15z"/>
<path d="M3758 523 c-14 -71 -35 -162 -46 -203 -12 -41 -24 -86 -27 -100 l-6
-25 15 25 c16 29 47 147 76 295 11 55 22 108 24 118 2 9 1 17 -3 17 -4 0 -19
-57 -33 -127z"/>
<path d="M0 536 c0 -2 23 -50 50 -107 28 -57 47 -93 44 -79 -15 56 -94 213
-94 186z"/>
<path d="M3250 533 c0 -6 8 -17 18 -24 16 -13 16 -13 2 6 -8 11 -16 22 -17 24
-2 2 -3 0 -3 -6z"/>
<path d="M3290 476 c0 -2 8 -10 18 -17 15 -13 16 -12 3 4 -13 16 -21 21 -21
13z"/>
<path d="M543 320 c-35 -14 -27 -21 15 -14 51 8 42 20 194 -254 32 -56 59 -73
33 -19 l-16 32 26 -32 c39 -49 48 -40 15 15 -37 59 -84 114 -76 89 4 -11 2
-16 -5 -12 -6 4 -8 14 -5 22 11 27 -112 184 -144 182 -8 0 -25 -4 -37 -9z"/>
<path d="M442 272 c-30 -16 -80 -51 -112 -78 -31 -27 -66 -54 -76 -60 -11 -7
-16 -15 -12 -19 3 -4 43 22 87 57 45 34 105 78 133 96 64 39 52 42 -20 4z"/>
<path d="M2609 197 c-52 -23 -107 -50 -122 -59 -14 -10 -54 -26 -89 -37 -151
-46 -282 -54 -336 -21 -36 22 -42 24 -42 12 0 -5 21 -18 48 -30 49 -23 111
-27 172 -12 19 5 49 11 65 13 107 16 222 41 230 49 7 7 2 8 -12 3 -13 -3 -23
-2 -23 3 0 13 195 102 224 102 13 0 29 -7 36 -15 7 -8 18 -15 24 -15 6 0 -2
11 -19 25 -16 13 -37 24 -45 24 -8 0 -58 -19 -111 -42z"/>
<path d="M2826 175 c10 -8 24 -14 29 -14 6 0 1 6 -9 14 -11 8 -24 15 -30 15
-5 0 -1 -7 10 -15z"/>
<path d="M3660 160 c-7 -17 -10 -33 -8 -36 3 -2 11 9 18 26 7 17 10 33 8 36
-3 2 -11 -9 -18 -26z"/>
<path d="M1621 150 c0 -8 4 -24 9 -35 l9 -20 0 20 c0 11 -4 27 -9 35 -9 13
-10 13 -9 0z"/>
<path d="M0 100 c0 -9 220 -3 229 6 2 2 -48 4 -112 4 -69 0 -117 -4 -117 -10z"/>
<path d="M3662 101 c-10 -6 -11 -18 -3 -50 14 -63 22 -62 19 2 -2 31 -3 57 -3
57 0 0 -6 -4 -13 -9z"/>
<path d="M1640 83 c0 -22 22 -83 30 -83 5 0 2 20 -7 45 -14 41 -23 56 -23 38z"/>
<path d="M2565 50 c10 -11 20 -20 23 -20 3 0 -3 9 -13 20 -10 11 -20 20 -23
20 -3 0 3 -9 13 -20z"/>
<path d="M2607 9 c7 -7 15 -10 18 -7 3 3 -2 9 -12 12 -14 6 -15 5 -6 -5z"/>
</g>
</svg>
